# xmcd
#
# Track frame offsets:
#	182
#	14482
#	29135
#	43767
#	57455
#	73375
#	94525
#	107020
#	119262
#	132380
#	145937
#	171292
#
# Disc length: 2502 seconds
#
# Revision: 1
# Processed by: cddbd v1.5.1PL0 Copyright (c) Steve Scherf et al.
# Submitted via: audiograbber 1.83.01
#
DISCID=b709c40c
DTITLE=Milena Soukupova - Mam skvelej den-
DYEAR=1993
DGENRE=Country
TTITLE0=Mam skvelej den
TTITLE1=V sedle je fajn
TTITLE2=Nehledej mou adresu
TTITLE3=Kaslu na lasku
TTITLE4=Blahovy snilek
TTITLE5=Favorit
TTITLE6=Serioznost neni tvuj styl
TTITLE7=O´ whiskey
TTITLE8=Uz ti muzu pravdu rict
TTITLE9=Good, good bye
TTITLE10=Pry vsechno zahoji cas
TTITLE11=Hnizdecko lasky
EXTD=
EXTT0=
EXTT1=
EXTT2=
EXTT3=
EXTT4=
EXTT5=
EXTT6=
EXTT7=
EXTT8=
EXTT9=
EXTT10=
EXTT11=
PLAYORDER=
